<svg xmlns="http://www.w3.org/2000/svg" viewBox="0 0 386.7 261.92">
    <path fill="#808080"
          d="M407.29,63.15c-6.78,2.46-12.79,5.15-17.34,11.1-23.49,30.68-47.42,61-71.2,91.5-5.32,6.81-10.66,13.59-15.95,20.33-4.09-1.36-7-5.62-12.77-3.41l7.66,9.46c-2,4.93-5.16,6.17-9.65,3.31-2.17-1.38-4.55-2.45-6.65-3.92-10.74-7.55-21.4-15.22-32.15-22.75a73,73,0,0,0-7-3.8c20.17-6.7,36.13-17.32,42.44-37.83s.88-38.6-13.42-55.07c17.13-1.31,33.48-2.22,48.19-10.62-9.09-1.09-18-2.07-24.72-9.26C286,61.38,275.3,65.1,262.7,66c4.78-17.52,13.59-26.28,28.62-30l-2.7-21c-18.53,8.67-31.78,22.16-33.83,43.33-10.32-2.46-20.48-6.07-30.89-7.12-25.31-2.55-48.54,3.25-66.88,22-24.89,25.49-19.74,65.12,10.66,83.6,5.35,3.26,11.29,5.55,17.39,8.5a200.39,200.39,0,0,0-41.72,28.86c-5.63,5-10,3.58-13.16-2L137.3,183,136,181.13l-11.11,4.69c-.83-1-1.89-2.28-2.9-3.57Q78.93,127.1,35.92,71.92c-4-5.12-9.71-6.56-15.33-8.67l99,126.79-7.3,9.45,1.33,1.8,11.57-4.84c1.25,2.53,4,5.46,3.68,8-.38,3.26-1.68,5.89,1.61,8.33,2.6,1.92,4.91,6,7.37,6,4.9,0,6.33,2.08,6.48,8l9.48-7.84c-9.09-3.88-8.25-7.91-2.87-11.34,5.6-3.58,10.68-8,16.12-11.8,3.59-2.53,7.42-4.73,11.92-7.56.14,18.15,1.44,35.12-7.92,50.67-3.32,5.51-5.6,11.7-7.85,17.77-2.11,5.7-3.55,11.66-5.47,18.11,3.4.77,5.92,1.62,8.5,1.86,8,.75,11.24-1.25,14.49-8.44,3.62-8,8.21-15.3,15.48-20.48,7.87-5.6,15.93-6.74,24.6-1.24,10,6.33,17.44,14.8,23.25,24.95.85,1.48,2.17,3.45,3.55,3.71a66.88,66.88,0,0,0,12.78,1.09c4.15,0,6-2.28,4.36-6.51-4.16-10.67-7.42-21.81-12.72-31.88-8.52-16.2-6.1-33.23-5.86-50.82,11.7,7.33,22.83,15.06,33.59,23.27,3.15,2.4.53,5.06-1.72,6.9-.79.65-2,.79-4.45,1.7l9.6,7.51c1.14-6.61,1.14-6.61,6.24-7.22,3.5-.42,11.6-8.8,10.28-11.32-2.88-5.5.94-8.08,3.52-11.18l11,4.59,1.3-1.77L308.27,190ZM202.49,192.94a29.53,29.53,0,0,0,4.21,2.16,11.64,11.64,0,0,1,4.57,3.18,6.91,6.91,0,0,1,1.28,4.28,7.51,7.51,0,0,1-1.2,4.21,7.87,7.87,0,0,1-3.47,2.86,12.85,12.85,0,0,1-5.31,1,21.52,21.52,0,0,1-4.27-.36,15.83,15.83,0,0,1-3.59-1.25V202.9a20.47,20.47,0,0,0,4.09,1.58,15.26,15.26,0,0,0,3.9.57,3.79,3.79,0,0,0,2.25-.53,1.63,1.63,0,0,0,.71-1.37,1.51,1.51,0,0,0-.29-.91,3.35,3.35,0,0,0-.92-.79q-.64-.4-3.39-1.64a16.24,16.24,0,0,1-3.74-2.2,6.74,6.74,0,0,1-1.85-2.44,8.09,8.09,0,0,1-.6-3.26,6.53,6.53,0,0,1,2.56-5.49,11.29,11.29,0,0,1,7-2,19.75,19.75,0,0,1,8.07,1.83l-2.11,5.31a15.28,15.28,0,0,0-6.17-1.64,3.21,3.21,0,0,0-2,.47,1.42,1.42,0,0,0-.61,1.17A1.69,1.69,0,0,0,202.49,192.94Zm27.88,15.66q-2.81,2-7.81,2a22.87,22.87,0,0,1-3.81-.3,19.88,19.88,0,0,1-3.79-1.08v-5.71a15.1,15.1,0,0,0,3.41,1.26,14,14,0,0,0,3.2.41,6.54,6.54,0,0,0,3.3-.64,2.17,2.17,0,0,0,1-2,2.24,2.24,0,0,0-.54-1.61,3.5,3.5,0,0,0-1.74-.85,13.92,13.92,0,0,0-3.14-.29h-1.57v-5.17h1.6q5.24,0,5.24-2.68a1.65,1.65,0,0,0-.78-1.5,3.88,3.88,0,0,0-2.08-.49,9.53,9.53,0,0,0-5.05,1.64L215,187a13.87,13.87,0,0,1,4.14-2,18.06,18.06,0,0,1,4.85-.59,10.7,10.7,0,0,1,6.2,1.57,5,5,0,0,1,2.25,4.32,6.07,6.07,0,0,1-1.45,4.07,8.23,8.23,0,0,1-4.18,2.47v.1q6.38.8,6.38,6A6.53,6.53,0,0,1,230.36,208.6Z"
          transform="translate(-20.59 -14.91)"/>
</svg>
